<svg width="173" height="173" viewBox="0 0 173 173" fill="none" xmlns="http://www.w3.org/2000/svg">
<path d="M156.305 79.8887C159.956 76.2374 165.876 76.2374 169.528 79.8887C173.179 83.5401 173.179 89.46 169.528 93.1113L150.666 111.972L169.528 130.833C173.179 134.484 173.179 140.404 169.528 144.056C165.876 147.707 159.956 147.707 156.305 144.056L137.444 125.195L118.583 144.056C114.932 147.707 109.012 147.707 105.361 144.056C101.709 140.404 101.71 134.484 105.361 130.833L124.221 111.972L105.361 93.1113C101.709 89.46 101.709 83.54 105.361 79.8887C109.012 76.2375 114.932 76.2375 118.583 79.8887L137.444 98.7494L156.305 79.8887ZM85.641 27.0653C85.641 25.0413 84.837 23.1 83.4058 21.6688C81.9746 20.2376 80.0333 19.4335 78.0092 19.4335C77.6789 19.4335 77.1371 19.2592 75.8801 21.1778C74.3104 23.5737 72.7428 27.7867 71.1996 34.4741C69.6939 40.9986 68.4167 48.8862 66.9443 58.1217C66.0013 64.0371 64.9877 70.433 63.802 77.1503H78.0092C83.173 77.1503 87.359 81.3363 87.359 86.5C87.359 91.6637 83.173 95.8498 78.0092 95.8498H60.2702C58.8686 103.521 57.7039 110.876 56.5965 117.822C55.1502 126.894 53.7738 135.458 52.0955 142.731C50.4548 149.84 48.3076 156.771 44.836 162.07C41.0518 167.846 35.2256 172.266 27.0653 172.266C20.0819 172.266 13.3843 169.492 8.44622 164.554C3.50817 159.616 0.734009 152.918 0.734009 145.935C0.734092 140.771 4.92009 136.585 10.0838 136.585C15.2474 136.585 19.4334 140.771 19.4335 145.935C19.4335 147.959 20.2376 149.9 21.6688 151.331C23.1 152.762 25.0413 153.567 27.0653 153.567C27.3956 153.567 27.9375 153.741 29.1945 151.822C30.7642 149.426 32.3318 145.213 33.875 138.526C35.3807 132.001 36.6579 124.114 38.1302 114.878C39.0732 108.963 40.0865 102.567 41.2722 95.8498H27.0653C21.9016 95.8498 17.7156 91.6637 17.7156 86.5C17.7156 81.3363 21.9016 77.1503 27.0653 77.1503H44.8043C46.2059 69.4787 47.3707 62.1242 48.478 55.1781C49.9243 46.1057 51.3007 37.5423 52.9791 30.2695C54.6198 23.1596 56.767 16.2286 60.2386 10.9297C64.0228 5.15393 69.849 0.734037 78.0092 0.734009C84.9927 0.734009 91.6903 3.50817 96.6283 8.44622C101.566 13.3843 104.341 20.0819 104.341 27.0653C104.34 32.2289 100.154 36.415 94.9908 36.4151C89.8271 36.4151 85.6411 32.229 85.641 27.0653Z" fill="black"/>
</svg>
