<svg width="219" height="219" viewBox="0 0 219 219" fill="none" xmlns="http://www.w3.org/2000/svg">
<rect width="219" height="219" rx="50" fill="white"/>
<path d="M179.305 102.889C182.956 99.2374 188.876 99.2374 192.528 102.889C196.179 106.54 196.179 112.46 192.528 116.111L173.666 134.972L192.528 153.833C196.179 157.484 196.179 163.404 192.528 167.056C188.876 170.707 182.956 170.707 179.305 167.056L160.444 148.195L141.583 167.056C137.932 170.707 132.012 170.707 128.361 167.056C124.709 163.404 124.71 157.484 128.361 153.833L147.221 134.972L128.361 116.111C124.709 112.46 124.709 106.54 128.361 102.889C132.012 99.2375 137.932 99.2375 141.583 102.889L160.444 121.749L179.305 102.889ZM108.641 50.0653C108.641 48.0413 107.837 46.1 106.406 44.6688C104.975 43.2376 103.033 42.4335 101.009 42.4335C100.679 42.4335 100.137 42.2592 98.8801 44.1778C97.3104 46.5737 95.7428 50.7867 94.1996 57.4741C92.6939 63.9986 91.4167 71.8862 89.9443 81.1217C89.0013 87.0371 87.9877 93.433 86.802 100.15H101.009C106.173 100.15 110.359 104.336 110.359 109.5C110.359 114.664 106.173 118.85 101.009 118.85H83.2702C81.8686 126.521 80.7039 133.876 79.5965 140.822C78.1502 149.894 76.7738 158.458 75.0955 165.731C73.4548 172.84 71.3076 179.771 67.836 185.07C64.0518 190.846 58.2256 195.266 50.0653 195.266C43.0819 195.266 36.3843 192.492 31.4462 187.554C26.5082 182.616 23.734 175.918 23.734 168.935C23.7341 163.771 27.9201 159.585 33.0838 159.585C38.2474 159.585 42.4334 163.771 42.4335 168.935C42.4335 170.959 43.2376 172.9 44.6688 174.331C46.1 175.762 48.0413 176.567 50.0653 176.567C50.3956 176.567 50.9375 176.741 52.1945 174.822C53.7642 172.426 55.3318 168.213 56.875 161.526C58.3807 155.001 59.6579 147.114 61.1302 137.878C62.0732 131.963 63.0865 125.567 64.2722 118.85H50.0653C44.9016 118.85 40.7156 114.664 40.7156 109.5C40.7156 104.336 44.9016 100.15 50.0653 100.15H67.8043C69.2059 92.4787 70.3707 85.1242 71.478 78.1781C72.9243 69.1057 74.3007 60.5423 75.9791 53.2695C77.6198 46.1596 79.767 39.2286 83.2386 33.9297C87.0228 28.1539 92.849 23.734 101.009 23.734C107.993 23.734 114.69 26.5082 119.628 31.4462C124.566 36.3843 127.341 43.0819 127.341 50.0653C127.34 55.2289 123.154 59.415 117.991 59.4151C112.827 59.4151 108.641 55.229 108.641 50.0653Z" fill="black"/>
</svg>
